<?xml version="1.0" encoding="utf-8"?>
<svg viewBox="48 169.1 100 100" width="100px" height="100px" xmlns="http://www.w3.org/2000/svg">
  <defs/>
  <ellipse style="fill: rgb(250, 250, 250);" cx="98" cy="219.1" rx="50" ry="50"/>
  <g style="" transform="matrix(0.72156, 0, 0, 0.72156, 43.611282, 55.198872)">
    <path d="M 65 170.6 C 52.8 175.9 47.5 192.2 54.6 202.8 C 56 204.8 56.5 207.5 56.5 213.6 C 56.5 223.7 58.5 227.6 63.2 226.6 C 65.9 226.1 66.1 226.2 65.8 228.7 C 65.5 231.1 64.8 231.5 59 233 C 51.2 234.9 48.4 236.3 46.9 239.2 C 45.7 241.4 45.5 251.1 46.6 256.9 C 47 258.9 47.4 264 47.4 268.4 C 47.5 274.3 47.9 276.5 49 277.1 C 49.8 277.5 56.4 279.5 63.6 281.5 L 76.6 285.2 L 89.1 281.4 C 95.9 279.4 102.3 277.3 103.3 276.8 C 104.9 276 105 274.3 104.8 258.2 L 104.5 240.5 L 99.5 238.8 C 96.8 237.8 92.7 236.6 90.5 236.1 L 86.4 235 L 86.8 228 C 87.1 223.2 86.7 219.4 85.5 215.8 C 84.3 211.9 84.1 210.5 85 210.2 C 85.7 209.9 87.8 208.4 89.8 206.6 C 101.4 196.4 98.7 177.3 84.6 170.9 C 79.6 168.6 69.9 168.5 65 170.6 Z M 82.9 174.5 C 92.3 179.3 95.4 192.5 89.2 200.9 C 84.8 206.9 75.5 210.3 69.6 208.1 C 67.3 207.2 67.1 206.8 68.1 205.1 C 69.9 202.4 68.5 200 65.2 200 C 63.7 200 61.9 200.5 61.2 201.2 C 59.4 203 57.3 200.5 56.2 195.4 C 53.6 183.2 61.8 173 74.3 173 C 77.5 173 81.4 173.7 82.9 174.5 Z M 66.4 211.9 C 66.7 212.3 66.3 213.6 65.5 214.6 C 64.1 216.4 64.1 216.4 64 213.7 C 64 211.1 65.3 210.1 66.4 211.9 Z M 95.2 240.8 C 95.6 241.2 91.4 242.8 85.7 244.3 C 76.7 246.7 75 246.9 71.5 245.8 L 67.5 244.6 L 75 243.3 C 79.1 242.5 83.2 241.2 84 240.4 C 85.1 239.2 86.7 239 90 239.4 C 92.4 239.8 94.8 240.4 95.2 240.8 Z M 100.8 258.7 L 100.5 273.4 L 94.5 275.2 C 91.2 276.2 86.4 277.7 83.7 278.5 L 78.9 279.9 L 79.2 264.8 L 79.5 249.7 L 89.5 247 C 95 245.5 99.8 244.2 100.3 244.1 C 100.7 244.1 100.9 250.6 100.8 258.7 Z M 57.5 248.2 C 59.7 259.8 62.3 264 66 262 C 68.6 260.6 69.1 258.2 67.8 253.9 C 67.2 251.7 67 249.7 67.3 249.4 C 67.6 249 69.5 249.1 71.5 249.4 L 75 250.1 L 75 265 C 75 274.9 74.6 280 73.9 280 C 73.1 280 60.1 276.5 52.8 274.4 C 51.3 274 51 272.7 51 268.2 C 51 263.5 51.4 262.3 53.1 261.2 C 55.1 259.9 55.2 259.3 54.5 252.4 C 53.9 246.2 54.1 245 55.3 245 C 56.2 245 57.1 246.3 57.5 248.2 Z" fill="#000000" stroke="none"/>
    <path d="M 59.7 187.7 C 59.3 188 59 189.6 59 191.2 C 59 194.9 62.7 195.2 63.6 191.6 C 64.5 187.9 61.9 185.4 59.7 187.7 Z" fill="#000000" stroke="none"/>
    <path d="M 69.4 191.6 C 68.6 194.5 70.1 196.5 72.4 195.7 C 73.4 195.3 74 193.9 74 192 C 74 188 70.4 187.7 69.4 191.6 Z" fill="#000000" stroke="none"/>
  </g>
</svg>